<svg xmlns="http://www.w3.org/2000/svg" width="162" height="159"><path fill="none" stroke="#000" stroke-linecap="round" stroke-linejoin="round" stroke-miterlimit="20" stroke-width="8" d="M41 8.954c-10.925-4.81-24.792-.521-32.252 10.47-8.113 11.954-5.575 27.308 5.669 34.294 2.955 1.836 6.217 2.911 9.568 3.282M119 10.013c11.156-6.395 26.339-2.306 34.265 9.374 8.09 11.92 5.56 27.228-5.652 34.193-3.8 2.362-8.11 3.46-12.462 3.419M89 142v4.878c0 4.485-3.664 8.122-8.168 8.122h-2.664c-4.511 0-8.168-3.65-8.168-8.122v-4.074 0" opacity=".09"/><path fill="none" stroke="#000" stroke-linecap="round" stroke-linejoin="round" stroke-miterlimit="20" stroke-width="8" d="M25 76v0-36C25 20.117 41.083 4 60.88 4h37.24C117.936 4 134 20.115 134 40v36" opacity=".09"/><path fill="none" stroke="#000" stroke-linecap="round" stroke-linejoin="round" stroke-miterlimit="20" stroke-width="8" d="M44 56v0-13.534C44 34.477 50.509 28 58.5 28 66.508 28 73 34.477 73 42.466v10.89" opacity=".09"/><path d="M59.5 49a5.5 5.5 0 1 0 0-11 5.5 5.5 0 0 0 0 11z" opacity=".09"/><path fill="none" stroke="#000" stroke-linecap="round" stroke-linejoin="round" stroke-miterlimit="20" stroke-width="8" d="M89 56.036v0-13.551c0-8 6.509-14.485 14.5-14.485 8.008 0 14.5 6.486 14.5 14.485V57" opacity=".09"/><path d="M102.5 49a5.5 5.5 0 1 0 0-11 5.5 5.5 0 0 0 0 11z" opacity=".09"/><path fill="none" stroke="#000" stroke-linecap="round" stroke-linejoin="round" stroke-miterlimit="20" stroke-width="8" d="M68.359 56.149A31.053 31.053 0 0 0 57.022 54C36.575 54 20 74.147 20 99s16.575 45 37.022 45c8.454 0 16.246-3.444 22.478-9.24 6.232 5.796 14.024 9.24 22.478 9.24C122.425 144 139 123.853 139 99s-16.575-45-37.022-45c-3.81 0-7.488.7-10.948 2" opacity=".09"/><path fill="none" stroke="#000" stroke-linecap="round" stroke-linejoin="round" stroke-miterlimit="20" stroke-width="8" d="M79.5 76c6.691 0 17.5-.04 17.5-6.667C97 62.707 86.191 52 79.5 52 72.809 52 62 62.707 62 69.333 62 75.96 72.809 76 79.5 76zM110 94l42-8m-39 18l37 3M46 94L4 86m40 18l-37 3" opacity=".09"/></svg>