<svg width="96.00000000000001" height="96.00000000000001" xmlns="http://www.w3.org/2000/svg">

 <g>
  <title>background</title>
  <rect fill="none" id="canvas_background" height="402" width="582" y="-1" x="-1"/>
 </g>
 <g>
  <title>Layer 1</title>
  <path fill="#2b2b2b" stroke-width="0" id="svg_1" d="m90.3,34.903149c0,0 0,-0.1 0,-0.1c0,0 0,0 0,-0.1c0,0 0,-0.1 0,-0.1c0,0 0,-0.1 0,-0.1c0,0 0,0 0,0c0,0 0,0 0,0c0,0 0,-0.1 0,-0.1c0,0 0,-0.1 -0.1,-0.1c0,0 0,0 0,-0.1c0,0 0,0 0,-0.1c0,0 -0.1,-0.1 -0.1,-0.1c0,0 0,0 0,-0.1c0,0 0,0 -0.1,0c0,0 -0.1,-0.1 -0.1,-0.1c0,0 0,0 -0.1,0c0,0 0,0 -0.1,0c0,0 -0.1,0 -0.1,-0.1c0,0 0,0 -0.1,0c0,0 -0.1,0 -0.1,0c0,0 0,0 -0.1,0l-18.3,-5.6l0,-12.1l0,0l0,0c0,0 0,0 0,0c0,-0.1 0,-0.3 -0.1,-0.4c0,0 0,-0.1 0,-0.1c0,-0.1 -0.1,-0.2 -0.1,-0.3c0,0 0,-0.1 -0.1,-0.1c-0.1,-0.1 -0.2,-0.2 -0.3,-0.3c0,0 0,0 0,0c0,0 0,0 -0.1,0c-0.1,-0.1 -0.2,-0.1 -0.3,-0.2c0,0 0,0 -0.1,0l-16.8,-5.2c-9.3,-3 -25.5,-2.2 -33.9,0.6c-6.4,2.2 -7.8,4.9 -7.9,6.7c0,0 0,0 0,0c0,0 0,0 0,0l0,23.7c0,0 0,0 0,0c0,0 0,0 0,0l0,34c0,0.8 0.7,1.5 1.5,1.5s1.5,-0.7 1.5,-1.5l0,-31.6l26,10.8l0,33.4c0,0.8 0.7,1.5 1.5,1.5s1.5,-0.7 1.5,-1.5l0,-32.2l7.9,3.3c0,0 0.1,0 0.1,0c0,0 0.1,0 0.1,0c0.1,0 0.3,0.1 0.4,0.1l0,0c0,0 0,0 0,0c0.1,0 0.3,0 0.4,-0.1c0,0 0.1,0 0.1,0c0,0 0.1,0 0.1,0l21.1,-8.5l0,22.1c0,0.8 0.7,1.5 1.5,1.5s1.5,-0.7 1.5,-1.5l0,-23.4l13,-5.3c0.6,-0.2 0.9,-0.8 0.9,-1.4l-0.1,-6.7c0,0 0,0 0,0zm-20.8,-4.2l14.7,4.4l-32.4,12.8l-15.1,-6.1l2.3,-0.8l9,3.3c0.2,0.1 0.3,0.1 0.5,0.1c0.6,0 1.2,-0.4 1.4,-1c0.3,-0.8 -0.1,-1.6 -0.9,-1.9l-5.5,-2l1.5,-0.5l9,3.3c0.2,0.1 0.3,0.1 0.5,0.1c0.6,0 1.2,-0.4 1.4,-1c0.3,-0.8 -0.1,-1.6 -0.9,-1.9l-5.4,-2l3.6,-1.2l9.2,3.4c0.2,0.1 0.3,0.1 0.5,0.1c0.6,0 1.2,-0.4 1.4,-1c0.3,-0.8 -0.1,-1.6 -0.9,-1.9l-5.7,-2.1l1.1,-0.4l9.1,3.3c0.2,0.1 0.3,0.1 0.5,0.1c0.6,0 1.2,-0.4 1.4,-1c0.3,-0.8 -0.1,-1.6 -0.9,-1.9l-5.6,-2l0.9,-0.3l9.3,3.3c0.2,0.1 0.3,0.1 0.5,0.1c0.6,0 1.2,-0.4 1.4,-1c0.3,-0.8 -0.1,-1.6 -0.9,-1.9l-5.6,-2l0.6,-0.4zm-1.5,-2.6l-34.2,11.5l0,-11.2l18,-5.5l16.2,-4.9l0,10.1zm-47.8,-15.2c4.4,-1.5 11.2,-2.4 17.9,-2.4c5.2,0 10.3,0.6 14.1,1.8l12.2,3.7l-9.5,2.9l-22.5,6.8l-13.6,-5.4c-3.3,-1.3 -4.4,-2.6 -4.4,-3.4c0,-1 1.5,-2.6 5.8,-4zm31.6,42.1l-37.5,-15.5l0,-18.1c0.9,0.6 1.9,1.1 3.3,1.7l13.2,5.2l0,13.4c0,0 0,0 0,0c0,0 0,0.1 0,0.1c0,0 0,0.1 0,0.1c0,0 0,0 0,0.1c0,0 0,0.1 0,0.1c0,0 0,0.1 0,0.1c0,0 0,0 0,0c0,0 0,0.1 0,0.1c0,0 0,0.1 0,0.1c0,0.1 0.1,0.1 0.1,0.2c0,0 0,0 0,0c0,0 0,0 0,0.1c0,0 0,0 0,0c0,0 0.1,0.1 0.1,0.1c0,0 0.1,0.1 0.1,0.1c0,0 0,0 0.1,0.1c0,0 0,0 0,0c0,0 0,0 0,0c0,0 0.1,0 0.1,0c0.1,0 0.1,0.1 0.2,0.1c0,0 0,0 0,0l19.5,7.8c0,0 0.1,0 0.1,0c0,0 0.1,0 0.1,0c0.1,0 0.3,0.1 0.4,0.1l0,0l0,0c0,0 0,0 0,0c0.2,0 0.3,0 0.5,-0.1c0,0 0,0 0,0l35,-13.7l0,3.4l-35.3,14.4z"/>
 </g>
</svg>