<?xml version="1.0" ?><svg style="enable-background:new 0 0 96 96;" version="1.1" viewBox="0 0 96 96" xml:space="preserve" xmlns="http://www.w3.org/2000/svg" xmlns:xlink="http://www.w3.org/1999/xlink">
<style type="text/css">
	.st0{display:none;}
	.st1{fill:#C48E3B;}
	.st2{fill:#BCBEC0;}
	.st3{fill:#FFFFFF;}
	.st4{fill:none;stroke:#000000;stroke-width:3;stroke-linecap:round;stroke-linejoin:round;stroke-miterlimit:10;}
	.st5{fill:#221E1F;stroke:#000000;stroke-width:0;stroke-miterlimit:10;}
	.st6{fill:none;stroke:#000000;stroke-width:1.5;stroke-linecap:round;stroke-linejoin:round;stroke-miterlimit:10;}
</style>
<g class="st3" id="Layer_2"/><g id="Layer_1"/><g id="Layer_3">
<path d="M90.3,35.5c0,0,0-0.1,0-0.1c0,0,0,0,0-0.1c0,0,0-0.1,0-0.1c0,0,0-0.1,0-0.1c0,0,0,0,0,0c0,0,0,0,0,0c0,0,0-0.1,0-0.1   c0,0,0-0.1-0.1-0.1c0,0,0,0,0-0.1c0,0,0,0,0-0.1c0,0-0.1-0.1-0.1-0.1c0,0,0,0,0-0.1c0,0,0,0-0.1,0c0,0-0.1-0.1-0.1-0.1   c0,0,0,0-0.1,0c0,0,0,0-0.1,0c0,0-0.1,0-0.1-0.1c0,0,0,0-0.1,0c0,0-0.1,0-0.1,0c0,0,0,0-0.1,0L71,28.7V16.6l0,0l0,0c0,0,0,0,0,0   c0-0.1,0-0.3-0.1-0.4c0,0,0-0.1,0-0.1c0-0.1-0.1-0.2-0.1-0.3c0,0,0-0.1-0.1-0.1c-0.1-0.1-0.2-0.2-0.3-0.3c0,0,0,0,0,0   c0,0,0,0-0.1,0c-0.1-0.1-0.2-0.1-0.3-0.2c0,0,0,0-0.1,0L53.1,10C43.8,7,27.6,7.8,19.2,10.6c-6.4,2.2-7.8,4.9-7.9,6.7c0,0,0,0,0,0   c0,0,0,0,0,0v23.7c0,0,0,0,0,0c0,0,0,0,0,0V75c0,0.8,0.7,1.5,1.5,1.5s1.5-0.7,1.5-1.5V43.4l26,10.8v33.4c0,0.8,0.7,1.5,1.5,1.5   s1.5-0.7,1.5-1.5V55.4l7.9,3.3c0,0,0.1,0,0.1,0c0,0,0.1,0,0.1,0c0.1,0,0.3,0.1,0.4,0.1l0,0c0,0,0,0,0,0c0.1,0,0.3,0,0.4-0.1   c0,0,0.1,0,0.1,0c0,0,0.1,0,0.1,0l21.1-8.5v22.1c0,0.8,0.7,1.5,1.5,1.5s1.5-0.7,1.5-1.5V48.9l13-5.3c0.6-0.2,0.9-0.8,0.9-1.4   L90.3,35.5C90.3,35.5,90.3,35.5,90.3,35.5z M69.5,31.3l14.7,4.4L51.8,48.5l-15.1-6.1l2.3-0.8l9,3.3c0.2,0.1,0.3,0.1,0.5,0.1   c0.6,0,1.2-0.4,1.4-1c0.3-0.8-0.1-1.6-0.9-1.9l-5.5-2l1.5-0.5l9,3.3c0.2,0.1,0.3,0.1,0.5,0.1c0.6,0,1.2-0.4,1.4-1   c0.3-0.8-0.1-1.6-0.9-1.9l-5.4-2l3.6-1.2l9.2,3.4c0.2,0.1,0.3,0.1,0.5,0.1c0.6,0,1.2-0.4,1.4-1c0.3-0.8-0.1-1.6-0.9-1.9l-5.7-2.1   l1.1-0.4l9.1,3.3c0.2,0.1,0.3,0.1,0.5,0.1c0.6,0,1.2-0.4,1.4-1c0.3-0.8-0.1-1.6-0.9-1.9l-5.6-2l0.9-0.3l9.3,3.3   c0.2,0.1,0.3,0.1,0.5,0.1c0.6,0,1.2-0.4,1.4-1c0.3-0.8-0.1-1.6-0.9-1.9l-5.6-2L69.5,31.3z M68,28.7L33.8,40.2V29l18-5.5L68,18.6   V28.7z M20.2,13.5c4.4-1.5,11.2-2.4,17.9-2.4c5.2,0,10.3,0.6,14.1,1.8l12.2,3.7l-9.5,2.9l-22.5,6.8l-13.6-5.4   c-3.3-1.3-4.4-2.6-4.4-3.4C14.4,16.5,15.9,14.9,20.2,13.5z M51.8,55.6L14.3,40.1V22c0.9,0.6,1.9,1.1,3.3,1.7l13.2,5.2v13.4   c0,0,0,0,0,0c0,0,0,0.1,0,0.1c0,0,0,0.1,0,0.1c0,0,0,0,0,0.1c0,0,0,0.1,0,0.1c0,0,0,0.1,0,0.1c0,0,0,0,0,0c0,0,0,0.1,0,0.1   c0,0,0,0.1,0,0.1c0,0.1,0.1,0.1,0.1,0.2c0,0,0,0,0,0c0,0,0,0,0,0.1c0,0,0,0,0,0c0,0,0.1,0.1,0.1,0.1c0,0,0.1,0.1,0.1,0.1   c0,0,0,0,0.1,0.1c0,0,0,0,0,0c0,0,0,0,0,0c0,0,0.1,0,0.1,0c0.1,0,0.1,0.1,0.2,0.1c0,0,0,0,0,0l19.5,7.8c0,0,0.1,0,0.1,0   c0,0,0.1,0,0.1,0c0.1,0,0.3,0.1,0.4,0.1l0,0l0,0c0,0,0,0,0,0c0.2,0,0.3,0,0.5-0.1c0,0,0,0,0,0l35-13.7l0,3.4L51.8,55.6z"/></g>
</svg>