<svg xmlns="http://www.w3.org/2000/svg" width="175" height="179"><path d="M89.602 104.965L6.637 70.719V30.73c1.991 1.325 4.204 2.43 7.301 3.756l29.204 11.489v31.151c0 .221.22.221.22.442v.221l.665.663h.22c.222 0 .222.22.443.22l43.142 17.234h.442c.222 0 .664.221.885.221.443 0 .664 0 1.106-.22l77.434-30.27v7.512zM19.69 11.946c9.735-3.314 24.779-5.303 39.602-5.303 11.504 0 22.788 1.326 31.195 3.978l26.99 8.175-21.017 6.409L46.681 40.23 16.593 28.298c-7.301-2.872-9.735-5.745-9.735-7.513 0-2.21 3.319-5.745 12.832-8.839zm105.752 33.588L49.78 70.945V46.197l39.823-12.154 35.84-10.827zm3.32 5.745l32.521 9.723-71.681 28.284-33.407-13.48 5.088-1.767 19.912 7.292c.442.221.663.221 1.106.221 1.327 0 2.655-.884 3.097-2.21.664-1.767-.221-3.535-1.99-4.198l-12.17-4.42 3.32-1.104 19.911 7.292c.443.22.664.22 1.106.22 1.328 0 2.655-.883 3.098-2.21.663-1.767-.222-3.535-1.992-4.198l-11.946-4.419 7.964-2.652 20.354 7.513c.443.221.664.221 1.106.221 1.328 0 2.655-.884 3.098-2.21.663-1.767-.222-3.535-1.992-4.198l-12.61-4.64 2.434-.884 20.132 7.292c.443.221.664.221 1.106.221 1.328 0 2.655-.884 3.098-2.21.663-1.768-.221-3.535-1.991-4.198l-12.39-4.42 1.991-.663 20.576 7.293c.442.22.663.22 1.106.22 1.327 0 2.655-.883 3.097-2.21.664-1.767-.221-3.535-1.991-4.198l-12.39-4.42zm46.017 8.839v-.663s0-.221-.221-.221v-.441l-.222-.222v-.22h-.221l-.221-.222h-.443s-.22 0-.22-.22h-.665L132.08 45.533V18.796c0-.22 0-.663-.222-.883v-.221c0-.221-.22-.442-.22-.663 0 0 0-.221-.222-.221l-.664-.663h-.221c-.221-.221-.442-.221-.664-.442h-.221L92.478 4.213c-20.575-6.63-56.416-4.862-75 1.325C3.318 10.4.22 16.366 0 20.343v127.5c0 1.768 1.549 3.315 3.319 3.315s3.318-1.547 3.318-3.315V78.016l57.522 23.865v73.804c0 1.768 1.549 3.315 3.319 3.315s3.318-1.547 3.318-3.315v-71.152l17.478 7.292h.443c.221 0 .664.22.885.22.221 0 .663 0 .885-.22h.442l46.682-18.783v48.835c0 1.768 1.548 3.315 3.318 3.315s3.319-1.547 3.319-3.315V90.17l28.76-11.712c1.328-.442 1.992-1.767 1.992-3.093l-.221-14.805v-.442z" opacity=".12"/></svg>